<?xml version="1.0" encoding="iso-8859-1"?>
<!-- Generator: Adobe Illustrator 19.0.0, SVG Export Plug-In . SVG Version: 6.00 Build 0)  -->
<svg version="1.1" id="Layer_1" xmlns="http://www.w3.org/2000/svg" xmlns:xlink="http://www.w3.org/1999/xlink" x="0px" y="0px"
	 viewBox="0 0 493.55 493.55" style="enable-background:new 0 0 493.55 493.55;" xml:space="preserve">
<g>
	<g>
		<path d="M246.775,0c-107.28,0-194.56,86.39-194.56,192.58c0,170.69,181.21,292.16,188.92,297.25l5.64,3.72l5.64-3.72
			c7.71-5.09,188.92-126.56,188.92-297.25C441.335,86.39,354.055,0,246.775,0z M246.775,468.79
			c-30.5-21.94-174.08-132.86-174.08-276.21c0-94.9,78.09-172.1,174.08-172.1s174.08,77.2,174.08,172.1
			C420.855,335.93,277.275,446.85,246.775,468.79z"/>
	</g>
</g>
<g>
	<g>
		<path d="M349.055,94.22c-27.135-27.74-63.46-43.02-102.28-43.02s-75.14,15.28-102.25,42.99c-26.51,26.91-41.11,62.55-41.11,100.37
			s14.6,73.46,41.085,100.34c27.135,27.74,63.455,43.02,102.275,43.02s75.145-15.28,102.255-42.99
			c26.505-26.9,41.105-62.55,41.105-100.37S375.535,121.09,349.055,94.22z M334.415,280.58c-23.25,23.77-54.375,36.86-87.64,36.86
			c-33.26,0-64.385-13.09-87.66-36.89c-22.71-23.05-35.22-53.58-35.22-85.99c0-32.41,12.51-62.94,35.245-86.02
			c23.25-23.77,54.375-36.86,87.635-36.86c33.265,0,64.39,13.09,87.665,36.89c22.71,23.04,35.215,53.58,35.215,85.99
			C369.655,226.97,357.15,257.51,334.415,280.58z"/>
	</g>
</g>
<g>
	<g>
		<path d="M285.925,115.2c-14.155-11.68-32.77-16.34-51.095-12.8c-23.99,4.65-43.24,23.9-47.905,47.9l20.1,3.9
			c3.09-15.88,15.83-28.62,31.7-31.7c12.48-2.38,24.6,0.6,34.17,8.5c9.43,7.78,14.84,19.25,14.84,31.46
			c0,13.51-6.675,26.12-17.865,33.73c-20.745,14.13-33.13,36.92-33.13,60.98h20.48c0-17.27,9.04-33.74,24.175-44.05
			c16.795-11.42,26.82-30.36,26.82-50.66C308.215,144.11,300.09,126.89,285.925,115.2z"/>
	</g>
</g>
<g>
	<g>
		<rect x="236.535" y="276.48" width="20.48" height="20.48"/>
	</g>
</g>
<g>
</g>
<g>
</g>
<g>
</g>
<g>
</g>
<g>
</g>
<g>
</g>
<g>
</g>
<g>
</g>
<g>
</g>
<g>
</g>
<g>
</g>
<g>
</g>
<g>
</g>
<g>
</g>
<g>
</g>
</svg>
